<svg width="104" height="18" viewBox="0 0 104 18" fill="none" xmlns="http://www.w3.org/2000/svg">
<path d="M8.56442 0.772788C8.75568 0.433466 9.24432 0.433465 9.43558 0.772787L11.7443 4.86882C11.8156 4.99541 11.9385 5.0847 12.081 5.11344L16.6899 6.0434C17.0718 6.12043 17.2228 6.58516 16.9591 6.87191L13.777 10.3334C13.6787 10.4403 13.6317 10.5848 13.6484 10.7291L14.1882 15.3999C14.2329 15.7869 13.8376 16.0741 13.4834 15.912L9.20808 13.9552C9.07595 13.8948 8.92405 13.8948 8.79192 13.9552L4.51655 15.912C4.16238 16.0741 3.76706 15.7869 3.81178 15.3999L4.35159 10.7291C4.36828 10.5848 4.32134 10.4403 4.22299 10.3334L1.04086 6.87191C0.777243 6.58516 0.92824 6.12043 1.31006 6.0434L5.91904 5.11344C6.06149 5.0847 6.18438 4.99541 6.25573 4.86882L8.56442 0.772788Z" fill="#ECDD55"/>
<path d="M30.5644 0.772788C30.7557 0.433466 31.2443 0.433465 31.4356 0.772787L33.7443 4.86882C33.8156 4.99541 33.9385 5.0847 34.081 5.11344L38.6899 6.0434C39.0718 6.12043 39.2228 6.58516 38.9591 6.87191L35.777 10.3334C35.6787 10.4403 35.6317 10.5848 35.6484 10.7291L36.1882 15.3999C36.2329 15.7869 35.8376 16.0741 35.4834 15.912L31.2081 13.9552C31.076 13.8948 30.924 13.8948 30.7919 13.9552L26.5166 15.912C26.1624 16.0741 25.7671 15.7869 25.8118 15.3999L26.3516 10.7291C26.3683 10.5848 26.3213 10.4403 26.223 10.3334L23.0409 6.87191C22.7772 6.58516 22.9282 6.12043 23.3101 6.0434L27.919 5.11344C28.0615 5.0847 28.1844 4.99541 28.2557 4.86882L30.5644 0.772788Z" fill="#ECDD55"/>
<path d="M52.5644 0.772788C52.7557 0.433466 53.2443 0.433465 53.4356 0.772787L55.7443 4.86882C55.8156 4.99541 55.9385 5.0847 56.081 5.11344L60.6899 6.0434C61.0718 6.12043 61.2228 6.58516 60.9591 6.87191L57.777 10.3334C57.6787 10.4403 57.6317 10.5848 57.6484 10.7291L58.1882 15.3999C58.2329 15.7869 57.8376 16.0741 57.4834 15.912L53.2081 13.9552C53.076 13.8948 52.924 13.8948 52.7919 13.9552L48.5166 15.912C48.1624 16.0741 47.7671 15.7869 47.8118 15.3999L48.3516 10.7291C48.3683 10.5848 48.3213 10.4403 48.223 10.3334L45.0409 6.87191C44.7772 6.58516 44.9282 6.12043 45.3101 6.0434L49.919 5.11344C50.0615 5.0847 50.1844 4.99541 50.2557 4.86882L52.5644 0.772788Z" fill="#ECDD55"/>
<path d="M74.5644 0.772788C74.7557 0.433466 75.2443 0.433465 75.4356 0.772787L77.7443 4.86882C77.8156 4.99541 77.9385 5.0847 78.081 5.11344L82.6899 6.0434C83.0718 6.12043 83.2228 6.58516 82.9591 6.87191L79.777 10.3334C79.6787 10.4403 79.6317 10.5848 79.6484 10.7291L80.1882 15.3999C80.2329 15.7869 79.8376 16.0741 79.4834 15.912L75.2081 13.9552C75.076 13.8948 74.924 13.8948 74.7919 13.9552L70.5166 15.912C70.1624 16.0741 69.7671 15.7869 69.8118 15.3999L70.3516 10.7291C70.3683 10.5848 70.3213 10.4403 70.223 10.3334L67.0409 6.87191C66.7772 6.58516 66.9282 6.12043 67.3101 6.0434L71.919 5.11344C72.0615 5.0847 72.1844 4.99541 72.2557 4.86882L74.5644 0.772788Z" fill="#ECDD55"/>
<path d="M95.5644 0.772788C95.7557 0.433466 96.2443 0.433465 96.4356 0.772787L98.4269 4.30569C98.4982 4.43228 98.6211 4.52157 98.7636 4.55031L102.739 5.35241C103.121 5.42945 103.272 5.89417 103.008 6.18092L100.263 9.16648C100.165 9.27346 100.118 9.41793 100.135 9.56228L100.6 13.5909C100.645 13.9778 100.25 14.2651 99.8957 14.103L96.2081 12.4152C96.076 12.3548 95.924 12.3548 95.7919 12.4152L92.1043 14.103C91.7502 14.2651 91.3548 13.9778 91.3996 13.5909L91.8652 9.56228C91.8818 9.41793 91.8349 9.27346 91.7366 9.16648L88.9919 6.18093C88.7283 5.89417 88.8793 5.42945 89.2611 5.35241L93.2364 4.55031C93.3789 4.52157 93.5018 4.43228 93.5731 4.30569L95.5644 0.772788Z" fill="#ECDD55"/>
<mask id="mask0_102_249" style="mask-type:alpha" maskUnits="userSpaceOnUse" x="88" y="0" width="16" height="15">
<path d="M95.5644 0.772788C95.7557 0.433466 96.2443 0.433465 96.4356 0.772787L98.4269 4.30569C98.4982 4.43228 98.6211 4.52157 98.7636 4.55031L102.739 5.35241C103.121 5.42945 103.272 5.89417 103.008 6.18092L100.263 9.16648C100.165 9.27346 100.118 9.41793 100.135 9.56228L100.6 13.5909C100.645 13.9778 100.25 14.2651 99.8957 14.103L96.2081 12.4152C96.076 12.3548 95.924 12.3548 95.7919 12.4152L92.1043 14.103C91.7502 14.2651 91.3548 13.9778 91.3996 13.5909L91.8652 9.56228C91.8818 9.41793 91.8349 9.27346 91.7366 9.16648L88.9919 6.18093C88.7283 5.89417 88.8793 5.42945 89.2611 5.35241L93.2364 4.55031C93.3789 4.52157 93.5018 4.43228 93.5731 4.30569L95.5644 0.772788Z" fill="#F5C252"/>
</mask>
<g mask="url(#mask0_102_249)">
<rect x="88" width="16" height="15" fill="#D9D9D9"/>
</g>
</svg>
