<svg width="100" height="100" viewBox="0 0 100 100" fill="none" xmlns="http://www.w3.org/2000/svg">
<path d="M28.9179 8.33325C30.6506 8.33325 32.0553 9.68413 32.0553 11.3505V17.4369C34.8382 17.385 37.9577 17.385 41.4675 17.385H58.2005C61.71 17.385 64.8296 17.385 67.6125 17.4369V11.3505C67.6125 9.68413 69.0171 8.33325 70.75 8.33325C72.4825 8.33325 73.8875 9.68413 73.8875 11.3505V17.7038C79.9084 18.1675 83.8613 19.3055 86.765 22.0982C89.6692 24.891 90.8525 28.6922 91.3346 34.4827L91.6667 37.4999H12.1857H8.33337V34.4827C8.8155 28.6922 9.99879 24.891 12.9027 22.0982C15.8067 19.3055 19.7595 18.1675 25.7805 17.7038V11.3505C25.7805 9.68413 27.1851 8.33325 28.9179 8.33325Z" fill="#00C8B3"/>
<path opacity="0.5" d="M91.6646 58.3337V50.0004C91.6646 46.5042 91.6512 40.272 91.5975 37.5H8.37154C8.31775 40.272 8.33137 46.5042 8.33137 50.0004V58.3337C8.33137 74.0471 8.33137 81.9038 13.2129 86.7854C18.0945 91.6671 25.9512 91.6671 41.6647 91.6671H58.3312C74.045 91.6671 81.9017 91.6671 86.7833 86.7854C91.6646 81.9038 91.6646 74.0471 91.6646 58.3337Z" fill="#00C8B3"/>
<path d="M75 70.8334C75 73.1347 73.1345 75.0001 70.8333 75.0001C68.532 75.0001 66.6666 73.1347 66.6666 70.8334C66.6666 68.5322 68.532 66.6667 70.8333 66.6667C73.1345 66.6667 75 68.5322 75 70.8334Z" fill="#00C8B3"/>
<path d="M75 54.1667C75 56.4679 73.1345 58.3333 70.8333 58.3333C68.532 58.3333 66.6666 56.4679 66.6666 54.1667C66.6666 51.8654 68.532 50 70.8333 50C73.1345 50 75 51.8654 75 54.1667Z" fill="#00C8B3"/>
<path d="M54.1667 70.8334C54.1667 73.1347 52.3013 75.0001 50 75.0001C47.6988 75.0001 45.8334 73.1347 45.8334 70.8334C45.8334 68.5322 47.6988 66.6667 50 66.6667C52.3013 66.6667 54.1667 68.5322 54.1667 70.8334Z" fill="#00C8B3"/>
<path d="M54.1667 54.1667C54.1667 56.4679 52.3013 58.3333 50 58.3333C47.6988 58.3333 45.8334 56.4679 45.8334 54.1667C45.8334 51.8654 47.6988 50 50 50C52.3013 50 54.1667 51.8654 54.1667 54.1667Z" fill="#00C8B3"/>
<path d="M33.3333 70.8334C33.3333 73.1347 31.4678 75.0001 29.1667 75.0001C26.8655 75.0001 25 73.1347 25 70.8334C25 68.5322 26.8655 66.6667 29.1667 66.6667C31.4678 66.6667 33.3333 68.5322 33.3333 70.8334Z" fill="#00C8B3"/>
<path d="M33.3333 54.1667C33.3333 56.4679 31.4678 58.3333 29.1667 58.3333C26.8655 58.3333 25 56.4679 25 54.1667C25 51.8654 26.8655 50 29.1667 50C31.4678 50 33.3333 51.8654 33.3333 54.1667Z" fill="#00C8B3"/>
</svg>
