<svg width="215" height="60" viewBox="0 0 215 60" fill="none" xmlns="http://www.w3.org/2000/svg">
<rect width="59" height="60" rx="6" fill="#6255EC"/>
<path d="M30.47 51.549C28.518 51.549 26.688 50.9797 24.98 49.841C23.272 48.6617 21.7673 47.0553 20.466 45.022C19.2053 42.9887 18.209 40.6097 17.477 37.885C16.7857 35.1197 16.44 32.151 16.44 28.979C16.44 25.807 16.7857 22.8587 17.477 20.134C18.209 17.4093 19.2053 15.0303 20.466 12.997C21.7673 10.923 23.272 9.31667 24.98 8.178C26.688 7.03933 28.518 6.47 30.47 6.47C32.422 6.47 34.2317 7.03933 35.899 8.178C37.607 9.31667 39.1117 10.923 40.413 12.997C41.7143 15.0303 42.7107 17.4093 43.402 20.134C44.134 22.8587 44.5 25.807 44.5 28.979C44.5 32.151 44.134 35.1197 43.402 37.885C42.7107 40.6097 41.7143 42.9887 40.413 45.022C39.1117 47.0553 37.607 48.6617 35.899 49.841C34.2317 50.9797 32.422 51.549 30.47 51.549ZM30.47 49.902C33.3573 49.902 35.6143 48.1737 37.241 44.717C38.8677 41.2603 39.681 36.0143 39.681 28.979C39.681 21.9437 38.8677 16.718 37.241 13.302C35.6143 9.84533 33.3573 8.117 30.47 8.117C27.6233 8.117 25.3663 9.84533 23.699 13.302C22.0723 16.718 21.259 21.9437 21.259 28.979C21.259 36.0143 22.0723 41.2603 23.699 44.717C25.3663 48.1737 27.6233 49.902 30.47 49.902Z" fill="white"/>
<path d="M23.074 51C22.464 51 22.159 50.7763 22.159 50.329C22.159 49.963 22.4233 49.719 22.952 49.597L24.355 49.353C25.209 49.1903 25.758 48.9667 26.002 48.682C26.2867 48.3973 26.429 47.828 26.429 46.974V11.106C26.429 10.252 26.2867 9.68267 26.002 9.398C25.758 9.11333 25.209 8.88967 24.355 8.727L22.952 8.483C22.4233 8.361 22.159 8.117 22.159 7.751C22.159 7.30366 22.464 7.08 23.074 7.08H34.237C34.847 7.08 35.152 7.324 35.152 7.812C35.152 8.178 34.9283 8.40166 34.481 8.483L32.834 8.727C31.98 8.849 31.4107 9.07266 31.126 9.398C30.882 9.72333 30.76 10.313 30.76 11.167V45.327C30.76 46.791 31.1667 47.8483 31.98 48.499C32.834 49.1497 33.8913 49.475 35.152 49.475C36.0873 49.475 37.043 49.292 38.019 48.926C39.0357 48.5193 39.9507 47.7873 40.764 46.73C41.5773 45.632 42.1873 44.046 42.594 41.972L43.387 37.885C43.509 37.3563 43.814 37.092 44.302 37.092C44.8713 37.092 45.1153 37.4377 45.034 38.129L44.302 49.597C44.2207 50.5323 43.7123 51 42.777 51H23.074Z" fill="white"/>
<path d="M76.3789 39.5H67.0742V22.6953H69.8633V37.1445H76.3789V39.5ZM87.2427 39.5H84.6059V37.625H84.5591C83.7309 39.0625 82.5161 39.7812 80.9145 39.7812C79.7348 39.7812 78.8091 39.4609 78.1372 38.8203C77.4731 38.1797 77.1411 37.332 77.1411 36.2773C77.1411 34.0117 78.4458 32.6914 81.0552 32.3164L84.6177 31.8125C84.6177 30.1016 83.8052 29.2461 82.1802 29.2461C80.7505 29.2461 79.4614 29.7383 78.313 30.7227V28.3438C79.5786 27.5938 81.0395 27.2188 82.6958 27.2188C85.727 27.2188 87.2427 28.7109 87.2427 31.6953V39.5ZM84.6177 33.6055L82.0981 33.957C81.3169 34.0586 80.727 34.25 80.3286 34.5312C79.938 34.8047 79.7427 35.2891 79.7427 35.9844C79.7427 36.4922 79.9223 36.9102 80.2817 37.2383C80.6489 37.5586 81.1372 37.7188 81.7466 37.7188C82.5747 37.7188 83.2583 37.4297 83.7973 36.8516C84.3442 36.2656 84.6177 35.5312 84.6177 34.6484V33.6055ZM100.556 39.5H97.8369V37.6016H97.79C97.0009 39.0547 95.7744 39.7812 94.1103 39.7812C91.2744 39.7812 89.8564 38.0781 89.8564 34.6719V27.5H92.5752V34.3906C92.5752 36.5469 93.4072 37.625 95.0713 37.625C95.8759 37.625 96.5361 37.3281 97.0517 36.7344C97.5752 36.1406 97.8369 35.3633 97.8369 34.4023V27.5H100.556V39.5ZM114.314 39.5H111.595V32.7383C111.595 30.4961 110.802 29.375 109.216 29.375C108.388 29.375 107.705 29.6875 107.165 30.3125C106.626 30.9297 106.357 31.7109 106.357 32.6562V39.5H103.626V27.5H106.357V29.4922H106.404C107.302 27.9766 108.599 27.2188 110.294 27.2188C111.599 27.2188 112.595 27.6445 113.283 28.4961C113.97 29.3398 114.314 30.5625 114.314 32.1641V39.5ZM128.072 39.5H125.353V37.4609H125.307C124.432 39.0078 123.084 39.7812 121.264 39.7812C119.787 39.7812 118.603 39.2461 117.713 38.1758C116.83 37.0977 116.389 35.6328 116.389 33.7812C116.389 31.7969 116.877 30.207 117.853 29.0117C118.838 27.8164 120.146 27.2188 121.779 27.2188C123.396 27.2188 124.572 27.8672 125.307 29.1641H125.353V21.7344H128.072V39.5ZM125.389 34.0156V32.4453C125.389 31.5938 125.111 30.8711 124.557 30.2773C124.002 29.6836 123.295 29.3867 122.435 29.3867C121.42 29.3867 120.619 29.7656 120.033 30.5234C119.455 31.2812 119.166 32.332 119.166 33.6758C119.166 34.8945 119.443 35.8594 119.998 36.5703C120.56 37.2734 121.314 37.625 122.26 37.625C123.189 37.625 123.943 37.2852 124.521 36.6055C125.1 35.918 125.389 35.0547 125.389 34.0156ZM138.104 30.0898C137.776 29.832 137.303 29.7031 136.686 29.7031C135.881 29.7031 135.209 30.0664 134.67 30.793C134.131 31.5195 133.862 32.5078 133.862 33.7578V39.5H131.143V27.5H133.862V29.9727H133.909C134.174 29.1289 134.58 28.4727 135.127 28.0039C135.682 27.5273 136.299 27.2891 136.979 27.2891C137.471 27.2891 137.846 27.3633 138.104 27.5117V30.0898ZM150.901 27.5L145.487 41.4219C144.362 43.9062 142.784 45.1484 140.753 45.1484C140.183 45.1484 139.706 45.0977 139.323 44.9961V42.7344C139.753 42.875 140.143 42.9453 140.495 42.9453C141.511 42.9453 142.268 42.4453 142.768 41.4453L143.577 39.4766L138.808 27.5H141.819L144.679 36.2188C144.71 36.3281 144.78 36.6172 144.89 37.0859H144.948C144.987 36.9062 145.058 36.625 145.159 36.2422L148.159 27.5H150.901ZM179.519 22.6953L174.914 39.5H171.762L168.562 27.7461C168.43 27.2461 168.348 26.6992 168.316 26.1055H168.269C168.23 26.6602 168.137 27.1992 167.988 27.7227L164.777 39.5H161.555L156.855 22.6953H159.914L162.961 35C163.086 35.5156 163.164 36.0547 163.195 36.6172H163.254C163.285 36.2188 163.394 35.6797 163.582 35L167.027 22.6953H169.898L173.086 35.0938C173.195 35.5156 173.277 36.0156 173.332 36.5938H173.379C173.402 36.2031 173.492 35.6875 173.648 35.0469L176.637 22.6953H179.519ZM189.34 39.5H186.703V37.625H186.657C185.828 39.0625 184.614 39.7812 183.012 39.7812C181.832 39.7812 180.907 39.4609 180.235 38.8203C179.571 38.1797 179.239 37.332 179.239 36.2773C179.239 34.0117 180.543 32.6914 183.153 32.3164L186.715 31.8125C186.715 30.1016 185.903 29.2461 184.278 29.2461C182.848 29.2461 181.559 29.7383 180.41 30.7227V28.3438C181.676 27.5938 183.137 27.2188 184.793 27.2188C187.825 27.2188 189.34 28.7109 189.34 31.6953V39.5ZM186.715 33.6055L184.196 33.957C183.414 34.0586 182.825 34.25 182.426 34.5312C182.035 34.8047 181.84 35.2891 181.84 35.9844C181.84 36.4922 182.02 36.9102 182.379 37.2383C182.746 37.5586 183.235 37.7188 183.844 37.7188C184.672 37.7188 185.356 37.4297 185.895 36.8516C186.442 36.2656 186.715 35.5312 186.715 34.6484V33.6055ZM191.438 39.125V36.6055C192.454 37.3789 193.575 37.7656 194.802 37.7656C196.442 37.7656 197.262 37.2812 197.262 36.3125C197.262 36.0391 197.192 35.8086 197.052 35.6211C196.911 35.4258 196.72 35.2539 196.477 35.1055C196.243 34.957 195.962 34.8242 195.634 34.707C195.313 34.5898 194.954 34.457 194.555 34.3086C194.063 34.1133 193.618 33.9062 193.22 33.6875C192.829 33.4688 192.501 33.2227 192.235 32.9492C191.977 32.668 191.782 32.3516 191.649 32C191.516 31.6484 191.45 31.2383 191.45 30.7695C191.45 30.1914 191.587 29.6836 191.86 29.2461C192.134 28.8008 192.501 28.4297 192.962 28.1328C193.423 27.8281 193.946 27.6016 194.532 27.4531C195.118 27.2969 195.723 27.2188 196.348 27.2188C197.458 27.2188 198.45 27.3867 199.325 27.7227V30.1016C198.481 29.5234 197.512 29.2344 196.419 29.2344C196.075 29.2344 195.762 29.2695 195.481 29.3398C195.208 29.4102 194.973 29.5078 194.778 29.6328C194.583 29.7578 194.43 29.9102 194.321 30.0898C194.212 30.2617 194.157 30.4531 194.157 30.6641C194.157 30.9219 194.212 31.1406 194.321 31.3203C194.43 31.5 194.591 31.6602 194.802 31.8008C195.02 31.9336 195.278 32.0586 195.575 32.1758C195.88 32.2852 196.227 32.4062 196.618 32.5391C197.134 32.75 197.595 32.9648 198.001 33.1836C198.415 33.4023 198.766 33.6523 199.055 33.9336C199.345 34.207 199.567 34.5273 199.723 34.8945C199.88 35.2539 199.958 35.6836 199.958 36.1836C199.958 36.793 199.817 37.3242 199.536 37.7773C199.255 38.2305 198.88 38.6055 198.411 38.9023C197.942 39.1992 197.399 39.418 196.782 39.5586C196.173 39.707 195.528 39.7812 194.848 39.7812C193.536 39.7812 192.399 39.5625 191.438 39.125ZM212.732 39.5H210.013V32.9375C210.013 30.5625 209.22 29.375 207.634 29.375C206.837 29.375 206.165 29.7188 205.618 30.4062C205.072 31.0938 204.798 31.9727 204.798 33.043V39.5H202.068V21.7344H204.798V29.4922H204.845C205.751 27.9766 207.048 27.2188 208.736 27.2188C211.4 27.2188 212.732 28.8477 212.732 32.1055V39.5Z" fill="#6255EC"/>
</svg>
