<svg width="100" height="100" viewBox="0 0 100 100" fill="none" xmlns="http://www.w3.org/2000/svg">
<path d="M9.48954 21.8623C9.95096 20.1993 11.6732 19.2251 13.3363 19.6866L20.435 21.6561C24.2554 22.716 27.2788 25.6611 28.3335 29.4788L37.2961 61.9205L37.9556 64.198C40.5937 65.1826 42.8596 67.0276 44.2975 69.478L45.5892 69.0792L82.5479 59.4746C84.2183 59.0405 85.9246 60.0426 86.3587 61.713C86.7929 63.3834 85.7904 65.0892 84.12 65.5234L47.2979 75.093L45.9283 75.5159C45.9004 80.8113 42.2467 85.648 36.7182 87.0846C30.0912 88.8067 23.2795 84.9926 21.5038 78.5651C19.7282 72.1376 23.6609 65.5309 30.2878 63.8088C30.6163 63.7234 30.9451 63.6517 31.2738 63.593L22.3091 31.1431C21.858 29.5101 20.5374 28.1706 18.7641 27.6786L11.6653 25.7091C10.0023 25.2476 9.02813 23.5254 9.48954 21.8623Z" fill="#FFCC00"/>
<path opacity="0.5" d="M39.8519 36.3771L41.9955 44.1358C44.0163 51.4504 45.0268 55.1079 47.9976 56.7717C50.968 58.435 54.7393 57.455 62.2809 55.495L70.2805 53.4163C77.8226 51.4563 81.5934 50.4763 83.3088 47.5946C85.0238 44.7133 84.0134 41.056 81.9926 33.7412L79.8493 25.9825C77.8284 18.6676 76.818 15.0102 73.8472 13.3466C70.8763 11.6831 67.1051 12.6631 59.5634 14.6231L51.5638 16.702C44.0218 18.662 40.251 19.6421 38.5358 22.5234C36.8206 25.4048 37.831 29.0622 39.8519 36.3771Z" fill="#FFCC00"/>
</svg>
